<?xml version="1.0" encoding="UTF-8"?>
<svg width="240" height="292" version="1.1" xmlns="http://www.w3.org/2000/svg" xmlns:xlink="http://www.w3.org/1999/xlink">
    <defs id="SvgjsDefs1516"></defs>
    <g id="SvgjsG1517" featurekey="root" fill="#ffffff"></g>
    <g id="SvgjsG1518" featurekey="container1" fill="#500207" transform="matrix(4.838708877563477,0,0,4.838708877563477,0.00003537982384402042,5.0201957320006505)">   
        <title xmlns="http://www.w3.org/2000/svg">Untitled-1</title>   
        <path xmlns="http://www.w3.org/2000/svg" d="M23.11,55.78L1.69,43.41A3.39,3.39,0,0,1,0,40.48V15.75a3.39,3.39,0,0,1,1.69-2.94L23.11,0.45a3.39,3.39,0,0,1,3.39,0L47.91,12.82a3.39,3.39,0,0,1,1.69,2.94V40.48a3.39,3.39,0,0,1-1.69,2.94L26.5,55.78A3.39,3.39,0,0,1,23.11,55.78Z"></path>
    </g>
    <g id="SvgjsG1519" featurekey="text1" fill="#ffffff" transform="matrix(4.156006813049316,0,0,4.156006813049316,34.514071365595335,56.7570567236428)">
        <path d="M3.46 24 l-1.86 0 l0 -10.4 l1.86 0 l0 10.4 z M2.52 11.72 q-0.5 0 -0.85 -0.33 t-0.35 -0.89 t0.35 -0.89 t0.85 -0.33 t0.85 0.33 t0.35 0.89 t-0.35 0.89 t-0.85 0.33 z M9.780000000000001 24.2 q-1.72 -0.04 -2.44 -0.74 t-0.72 -2.18 l0 -12.48 l1.86 -0.32 l0 12.5 q0 0.46 0.08 0.76 t0.26 0.48 t0.48 0.27 t0.74 0.15 z M10.9 25.94 q0.22 0.1 0.57 0.19 t0.69 0.09 q1.1 0 1.72 -0.49 t1.12 -1.59 q-1.26 -2.4 -2.35 -5.09 t-1.81 -5.45 l2 0 q0.22 0.9 0.53 1.94 t0.69 2.14 t0.82 2.2 t0.92 2.12 q0.76 -2.1 1.32 -4.16 t1.06 -4.24 l1.92 0 q-0.72 2.94 -1.6 5.65 t-1.9 5.07 q-0.4 0.9 -0.83 1.55 t-0.95 1.07 t-1.17 0.62 t-1.47 0.2 q-0.22 0 -0.46 -0.03 t-0.47 -0.08 t-0.42 -0.11 t-0.27 -0.1 z M21.48 18.82 q0 -1.38 0.4 -2.41 t1.06 -1.71 t1.52 -1.02 t1.76 -0.34 q2.1 0 3.22 1.31 t1.12 3.99 l0 0.31 t-0.02 0.35 l-7.12 0 q0.12 1.62 0.94 2.46 t2.56 0.84 q0.98 0 1.65 -0.17 t1.01 -0.33 l0.26 1.56 q-0.34 0.18 -1.19 0.38 t-1.93 0.2 q-1.36 0 -2.35 -0.41 t-1.63 -1.13 t-0.95 -1.71 t-0.31 -2.17 z M28.62 17.8 q0.02 -1.26 -0.63 -2.07 t-1.79 -0.81 q-0.64 0 -1.13 0.25 t-0.83 0.65 t-0.53 0.92 t-0.25 1.06 l5.16 0 z M35.66 22.66 q1.14 0 1.69 -0.3 t0.55 -0.96 q0 -0.68 -0.54 -1.08 t-1.78 -0.9 q-0.6 -0.24 -1.15 -0.49 t-0.95 -0.59 t-0.64 -0.82 t-0.24 -1.18 q0 -1.38 1.02 -2.19 t2.78 -0.81 q0.44 0 0.88 0.05 t0.82 0.12 t0.67 0.15 t0.45 0.14 l-0.34 1.6 q-0.3 -0.16 -0.94 -0.33 t-1.54 -0.17 q-0.78 0 -1.36 0.31 t-0.58 0.97 q0 0.34 0.13 0.6 t0.4 0.47 t0.67 0.39 t0.96 0.38 q0.74 0.28 1.32 0.55 t0.99 0.63 t0.63 0.87 t0.22 1.25 q0 1.44 -1.07 2.18 t-3.05 0.74 q-1.38 0 -2.16 -0.23 t-1.06 -0.35 l0.34 -1.6 q0.32 0.12 1.02 0.36 t1.86 0.24 z"></path>
    </g>
    <g id="SvgjsG1520" featurekey="text3" fill="#ffffff" transform="matrix(0.5607564449310303,0,0,0.5607564449310303,71.56798345196196,181.21173697401798)">
        <path d="M0.84746 21.729 l0.47441 -0.55932 c0.15238 -0.15254 0.30492 -0.13559 0.44051 -0.033898 c0.32203 0.27119 1.6441 1.7119 3.5254 1.7119 c2.2373 0 3.2203 -1.2203 3.2203 -2.4237 c0 -1.7288 -1.9663 -2.1864 -3.7459 -2.8305 c-2.0169 -0.76271 -3.7458 -1.678 -3.7458 -3.7119 c0 -1.6949 1.2373 -3.5593 4.2712 -3.5593 c2.0847 0 3.5932 1.2542 4 1.6102 c0.13559 0.11864 0.18644 0.27119 0.084912 0.40678 l-0.44068 0.57627 c-0.10169 0.13559 -0.23729 0.16949 -0.38983 0.067797 c-0.33898 -0.25424 -1.5592 -1.3898 -3.2371 -1.3898 c-1.8985 0 -2.9663 1 -2.9663 2.288 c0 1.4915 1.5086 2.0169 3.4917 2.7288 c1.8136 0.67797 4 1.5932 4 3.8305 c0 1.9661 -1.8303 3.6608 -4.5253 3.6608 c-2.4746 0 -4 -1.61 -4.3898 -1.9998 c-0.11864 -0.11864 -0.22034 -0.22034 -0.067797 -0.37271 z M13.03392033898305 10.441 l-0.86441 0 c-0.15254 0 -0.22034 0.067797 -0.22034 0.22034 l0 13.119 c0 0.13559 0.067797 0.22017 0.22034 0.22017 l0.88136 0 c0.11864 0 0.20339 -0.08458 0.20339 -0.22017 l0 -13.119 c0 -0.15254 -0.084746 -0.22034 -0.22034 -0.22034 z M31.25416949152542 10.441 c0.11864 0 0.20339 0.10186 0.20339 0.23746 l0 13.085 c0 0.15254 -0.084746 0.23712 -0.22034 0.23712 l-0.88136 0 c-0.16949 0 -0.23729 -0.08458 -0.23729 -0.23712 l0 -10.61 l-6.1697 10.407 c-0.067797 0.11864 -0.13559 0.16949 -0.25424 0.16949 l-0.067797 0 c-0.10169 0 -0.18644 -0.050847 -0.25424 -0.16949 l-6.1525 -10.407 l0 10.61 c0 0.15254 -0.084746 0.23712 -0.22034 0.23712 l-0.88136 0 c-0.15254 0 -0.23729 -0.08458 -0.23729 -0.23712 l0 -13.102 c0 -0.11881 0.067797 -0.22051 0.20339 -0.22051 l0.81356 0 c0.11864 0 0.18644 0.050847 0.25424 0.15271 l6.5086 10.983 l6.5254 -10.983 c0.050847 -0.10186 0.11864 -0.15271 0.27119 -0.15271 l0.79661 0 z M39.05081355932204 10.441 c3.0846 0 4.6437 2.4407 4.6437 4.4576 c0 2.0847 -1.5593 4.4746 -4.6439 4.4746 l-3.7966 0 l0 4.3898 c0 0.15254 -0.067797 0.23712 -0.20339 0.23712 l-0.91525 0 c-0.15238 0 -0.22017 -0.08458 -0.22017 -0.23712 l0 -13.102 c0 -0.15254 0.067797 -0.22034 0.22017 -0.22034 l4.9154 0 z M38.999813559322035 18.1019 c2.1864 0 3.3559 -1.6102 3.3559 -3.2034 s-1.1695 -3.1695 -3.3559 -3.1695 l-3.7456 0 l0 6.3729 l3.7456 0 z M53.45758983050848 22.712 c0.13559 0 0.20339 0.084912 0.20339 0.23729 l0 0.83051 c0 0.15254 -0.067797 0.22017 -0.20339 0.22017 l-7.9492 0 c-0.15254 0 -0.20339 -0.10153 -0.20339 -0.22017 l0 -13.119 c0 -0.15254 0.067797 -0.22034 0.22034 -0.22034 l0.89831 0 c0.13559 0 0.22034 0.067797 0.22034 0.22034 l0 12.051 l6.8136 0 z M66.91522033898305 10.441 c0.08458 0 0.15188 0.10169 0.084083 0.20339 l-5.4064 7.7458 l0 5.3729 c0 0.15254 -0.067797 0.23712 -0.20339 0.23712 l-0.67797 0 c-0.28814 0 -0.44068 -0.18644 -0.44068 -0.47441 l0 -5.1356 l-5.4068 -7.7458 c-0.050847 -0.10169 0 -0.20339 0.10186 -0.20339 l1.1864 0 c0.10169 0 0.15254 0.067797 0.20339 0.16949 l4.5763 6.4746 l4.5764 -6.4746 c0.067797 -0.10169 0.10169 -0.16949 0.20339 -0.16949 l1.2034 0 z  M85.84766101694916 23.77983 c0.067797 0.13559 0.034229 0.22017 -0.11831 0.22017 l-1.0339 0 c-0.11864 0 -0.18644 -0.050847 -0.23729 -0.15254 l-1.1864 -2.5254 l-8.1864 0 l-1.1864 2.5254 c-0.050847 0.10169 -0.11848 0.15254 -0.22034 0.15254 l-1.0678 0 c-0.11864 0 -0.18644 -0.08458 -0.11864 -0.22017 l6.3558 -13.271 c0.067797 -0.11864 0.11864 -0.15254 0.20322 -0.15254 l0.23745 0 c0.084746 0 0.15254 0.033898 0.20339 0.15254 z M75.66116101694917 20.1019 l7.0339 0 l-3.5254 -7.4576 z M105.13532203389832 10.424 c0.11864 0 0.23746 0.11897 0.13576 0.30558 l-6.3053 13.152 c-0.050847 0.10169 -0.13559 0.16933 -0.25424 0.16933 l-0.15238 0 c-0.10186 0 -0.20356 -0.067631 -0.23746 -0.16933 l-2.1695 -4.5593 l-2.1695 4.5763 c-0.050847 0.10153 -0.13559 0.16933 -0.25424 0.16933 l-0.15254 0 c-0.10169 0 -0.20339 -0.067797 -0.25424 -0.16933 l-6.3051 -13.169 c-0.084746 -0.16966 0.033898 -0.28831 0.15254 -0.28831 l1.1356 0 c0.15254 0 0.18644 0.10169 0.27119 0.27119 l5.0847 10.898 l1.7627 -3.8305 l-3.3559 -7.0678 c-0.084746 -0.16949 0.033898 -0.28814 0.15271 -0.28814 l1.1525 0 c0.13559 0 0.18644 0.10186 0.25407 0.27119 l2.5254 5.4915 l2.5085 -5.4746 c0.084746 -0.16949 0.13559 -0.27119 0.27119 -0.27119 l1.1525 0 c0.11864 0 0.22034 0.11864 0.13559 0.30508 l-3.339 7.0339 l1.7627 3.8136 l5.0847 -10.898 c0.067797 -0.16933 0.11864 -0.27119 0.25424 -0.27119 l1.1525 0 z M115.69471355932205 11.729 l-7.3556 0.00049656 l0 4.9659 l4.5424 0 c0.15254 0 0.23729 0.067797 0.23729 0.23729 l0 0.81339 c0 0.15254 -0.084746 0.22034 -0.23729 0.22034 l-4.5424 0 l0 4.7458 l7.3559 0 c0.15254 0 0.23712 0.084746 0.23712 0.23712 l0 0.81356 c0 0.16949 -0.067797 0.23712 -0.23729 0.23712 l-8.4746 0 c-0.15254 0 -0.22034 -0.08458 -0.22034 -0.22017 l0 -13.119 c0 -0.15254 0.084746 -0.22034 0.22034 -0.22034 l8.4746 0 c0.15254 0 0.23712 0.084746 0.23712 0.22034 l0 0.84746 c0 0.13559 -0.067797 0.22034 -0.23729 0.22034 z M117.77966338983052 21.729 l0.47441 -0.55932 c0.15238 -0.15254 0.30492 -0.13559 0.44051 -0.033898 c0.32203 0.27119 1.6441 1.7119 3.5254 1.7119 c2.2373 0 3.2203 -1.2203 3.2203 -2.4237 c0 -1.7288 -1.9663 -2.1864 -3.7459 -2.8305 c-2.0169 -0.76271 -3.7458 -1.678 -3.7458 -3.7119 c0 -1.6949 1.2373 -3.5593 4.2712 -3.5593 c2.0847 0 3.5932 1.2542 4 1.6102 c0.13559 0.11864 0.18644 0.27119 0.084912 0.40678 l-0.44068 0.57627 c-0.10169 0.13559 -0.23729 0.16949 -0.38983 0.067797 c-0.33898 -0.25424 -1.5592 -1.3898 -3.2371 -1.3898 c-1.8985 0 -2.9663 1 -2.9663 2.288 c0 1.4915 1.5086 2.0169 3.4917 2.7288 c1.8136 0.67797 4 1.5932 4 3.8305 c0 1.9661 -1.8303 3.6608 -4.5253 3.6608 c-2.4746 0 -4 -1.61 -4.3898 -1.9998 c-0.11864 -0.11864 -0.22034 -0.22034 -0.067797 -0.37271 z M135.50852372881357 24.11864 c3.8305 0 6.9492 -3.0337 6.9492 -6.8981 c0 -3.8475 -3.1186 -6.8983 -6.9492 -6.8983 c-3.8475 0 -6.9661 3.0508 -6.9661 6.8983 c0 3.8644 3.1186 6.8981 6.9661 6.8981 z M135.50852372881357 22.8307 c-3.0847 0 -5.6441 -2.5085 -5.6441 -5.6102 s2.5593 -5.6102 5.6441 -5.6102 c3.0846 0 5.61 2.5085 5.61 5.6102 s-2.5254 5.6102 -5.61 5.6102 z M160.11857627118644 10.441 c0.11864 0 0.20339 0.10186 0.20339 0.23746 l0 13.085 c0 0.15254 -0.084746 0.23712 -0.22034 0.23712 l-0.88136 0 c-0.16949 0 -0.23729 -0.08458 -0.23729 -0.23712 l0 -10.61 l-6.1697 10.407 c-0.067797 0.11864 -0.13559 0.16949 -0.25424 0.16949 l-0.067797 0 c-0.10169 0 -0.18644 -0.050847 -0.25424 -0.16949 l-6.1525 -10.407 l0 10.61 c0 0.15254 -0.084746 0.23712 -0.22034 0.23712 l-0.88136 0 c-0.15254 0 -0.23729 -0.08458 -0.23729 -0.23712 l0 -13.102 c0 -0.11881 0.067797 -0.22051 0.20339 -0.22051 l0.81356 0 c0.11864 0 0.18644 0.050847 0.25424 0.15271 l6.5086 10.983 l6.5254 -10.983 c0.050847 -0.10186 0.11864 -0.15271 0.27119 -0.15271 l0.79661 0 z M171.55912033898304 11.729 l-7.3556 0.00049656 l0 4.9659 l4.5424 0 c0.15254 0 0.23729 0.067797 0.23729 0.23729 l0 0.81339 c0 0.15254 -0.084746 0.22034 -0.23729 0.22034 l-4.5424 0 l0 4.7458 l7.3559 0 c0.15254 0 0.23712 0.084746 0.23712 0.23712 l0 0.81356 c0 0.16949 -0.067797 0.23712 -0.23729 0.23712 l-8.4746 0 c-0.15254 0 -0.22034 -0.08458 -0.22034 -0.22017 l0 -13.119 c0 -0.15254 0.084746 -0.22034 0.22034 -0.22034 l8.4746 0 c0.15254 0 0.23712 0.084746 0.23712 0.22034 l0 0.84746 c0 0.13559 -0.067797 0.22034 -0.23729 0.22034 z"></path>
    </g>
</svg>